<?xml version="1.0" encoding="UTF-8"?><svg id="Layer_1" xmlns="http://www.w3.org/2000/svg" viewBox="0 0 1362.79 409.82"><defs><style>.cls-1{fill:#010101;}.cls-2{fill:#e7ded3;}.cls-3{fill:#ffcd32;}</style></defs><rect class="cls-2" y="0" width="1362.79" height="413.66"/><path class="cls-1" d="M149.93,171.9h11.34l12.58,21.45,11.47-21.45h11.16l-17.17,29.76v12.34h-10.35v-12.27l-19.03-29.82Z"/><path class="cls-1" d="M240.44,196.64c0,11.96-11.47,18.35-23.19,18.35s-23.5-6.51-23.5-18.35,11.96-18.47,23.87-18.47,22.81,6.39,22.81,18.47Zm-11.9,0c0-6.7-3.97-11.9-11.41-11.9s-11.47,5.89-11.47,11.9c0,6.82,4.71,12.27,11.47,12.27s11.41-5.46,11.41-12.27Z"/><path class="cls-1" d="M245.22,179.15h11.22l-.06,19.47c0,5.95,4.34,10.1,10.54,10.1,9.92,0,14.57-8.43,14.57-11.78l.06-17.79h11.41v34.9h-11.41v-7.5c-2.6,3.91-8.49,7.94-17.11,7.94s-19.22-4.84-19.22-15.87v-19.47Z"/><path class="cls-1" d="M301.52,214v-35.58h11.41v7.44c3.66-4.65,8.93-7.63,15.37-7.56,1.74,0,3.66,.31,5.46,.81l-.06,7.32c-1.05-.37-2.73-.62-4.53-.62-1.61,0-3.35,.19-5.02,.68-6.57,1.05-11.22,7.44-11.22,11.72v15.81h-11.41Z"/><path class="cls-1" d="M358.43,214v-48.29h11.41v28.27l17.54-14.94h14.38l-16.18,14.07,15.31,20.95h-10.97l-11.16-15.68-8.93,7.69v7.94h-11.41Z"/><path class="cls-1" d="M427.44,179.09c11.78,0,22.75,5.77,22.81,18.04,0,.99-.12,2.05-.37,2.98-3.47,0-30,.12-33.97,.12,.19,4.77,4.65,8.74,11.1,8.74,4.46,0,8.8-1.61,11.65-4.71l8.93,1.49c-3.1,5.52-11.03,9.05-20.46,9.05-12.83,0-23.5-6.94-23.5-17.79s10.97-17.92,23.81-17.92Zm-11.72,16.68l22.44-.06c0-6.14-4.59-10.41-11.16-10.41-7.25,0-11.34,5.33-11.28,10.48Z"/><path class="cls-1" d="M463.27,178.04l11.53,30.69,12.46-30.69h11.47l-21.57,52.01h-11.03l6.51-16.06c-4.15-.12-7.69-2.29-9.11-5.95l-12.27-30h12.03Z"/><path class="cls-1" d="M519.63,186.53l.19-7.32h8.18l.06-9.92,11.53-4.28-.12,14.2h13.64l-2.54,7.32h-11.34v13.33c0,3.84,1.43,6.88,6.14,6.88h10.41v7.25h-14.07c-8.68,0-13.89-6.57-13.89-14.63v-12.83h-8.18Z"/><path class="cls-1" d="M604.81,196.64c0,11.96-11.47,18.35-23.19,18.35s-23.5-6.51-23.5-18.35,11.96-18.47,23.87-18.47,22.81,6.39,22.81,18.47Zm-11.9,0c0-6.7-3.97-11.9-11.41-11.9s-11.47,5.89-11.47,11.9c0,6.82,4.71,12.27,11.47,12.27s11.41-5.46,11.41-12.27Z"/><path class="cls-1" d="M626.95,186.53l.19-7.32h8.18l.06-9.92,11.53-4.28-.12,14.2h13.64l-2.54,7.32h-11.34v13.33c0,3.84,1.43,6.88,6.14,6.88h10.41v7.25h-14.07c-8.68,0-13.89-6.57-13.89-14.63v-12.83h-8.18Z"/><path class="cls-1" d="M668.74,165.7h11.41v21.08c4.09-3.91,9.73-6.63,15.93-6.63,10.6,0,20.4,5.64,20.4,15.68v18.16h-11.22v-18.16c0-2.23-1.61-9.92-11.34-9.92-7.69,0-12.83,5.08-13.76,10.29v17.79h-11.41v-48.29Z"/><path class="cls-1" d="M746.05,179.09c11.78,0,22.75,5.77,22.81,18.04,0,.99-.12,2.05-.37,2.98-3.47,0-30,.12-33.97,.12,.19,4.77,4.65,8.74,11.1,8.74,4.46,0,8.8-1.61,11.65-4.71l8.93,1.49c-3.1,5.52-11.03,9.05-20.46,9.05-12.83,0-23.5-6.94-23.5-17.79s10.97-17.92,23.81-17.92Zm-11.72,16.68l22.44-.06c0-6.14-4.59-10.41-11.16-10.41-7.25,0-11.34,5.33-11.28,10.48Z"/><path class="cls-3" d="M837.82,157.84v-7.25h-10.7c-27.71,0-32.39,12.77-32.39,41.4,0,35.51,9.99,41.5,32.39,41.5h10.7v-7.25h-9.81c-19.61,0-23.06-11.04-23.06-34.25,0-29.04,7.43-34.15,23.06-34.15h9.81Z"/><path class="cls-1" d="M840.66,171.78v28.39c0,5.52,6.01,8.06,10.85,8.06s9.98-3.41,9.98-8.06v-28.39h11.41v26.78c0,6.82-6.45,16.24-21.82,16.24s-21.76-9.49-21.76-16.24v-26.78h11.34Z"/><path class="cls-1" d="M892.43,171.65l17.23,25.98v-25.98h11.28v42.34h-9.86l-18.6-26.53v26.53h-11.28l-.12-42.34h11.34Z"/><path class="cls-3" d="M957.37,191.98c0-28.63-4.68-41.4-32.39-41.4h-10.71v7.25h9.81c19.61,0,23.06,11.01,23.06,34.15,0,29.12-7.43,34.25-23.06,34.25h-9.81v7.25h10.71c27.71,0,32.39-12.8,32.39-41.5Z"/><path class="cls-1" d="M969.72,214v-48.29h11.41v28.27l17.54-14.94h14.38l-16.18,14.07,15.31,20.95h-10.97l-11.16-15.68-8.93,7.69v7.94h-11.41Z"/><path class="cls-1" d="M1018.45,179.09h11.41v7.75c4.09-3.91,9.73-6.63,15.93-6.63,10.6,0,20.4,4.71,20.4,15.68v18.16h-11.22v-18.16c0-2.23-1.61-9.49-11.34-9.49-7.69,0-12.83,5.7-13.76,10.91v16.74h-11.41v-34.96Z"/><path class="cls-1" d="M1117.64,196.64c0,11.96-11.47,18.35-23.19,18.35s-23.5-6.51-23.5-18.35,11.96-18.47,23.87-18.47,22.81,6.39,22.81,18.47Zm-11.9,0c0-6.7-3.97-11.9-11.41-11.9s-11.47,5.89-11.47,11.9c0,6.82,4.71,12.27,11.47,12.27s11.41-5.46,11.41-12.27Z"/><path class="cls-1" d="M1119.51,178.1c10.66,0,11.03,1.12,10.72-.06l9.11,28.33,9.55-28.33h12.15l9.42,28.33,9.11-28.33h11.84l-12.89,35.96h-14.94l-8.99-25.54-8.56,25.54h-15.5l-12.4-35.89h1.36Z"/><path class="cls-1" d="M1195.39,179.09h11.41v7.75c4.09-3.91,9.73-6.63,15.93-6.63,10.6,0,20.4,4.71,20.4,15.68v18.16h-11.22v-18.16c0-2.23-1.61-9.49-11.34-9.49-7.69,0-12.83,5.7-13.76,10.91v16.74h-11.41v-34.96Z"/></svg>