<?xml version="1.0" encoding="UTF-8"?><svg id="Layer_1" xmlns="http://www.w3.org/2000/svg" viewBox="0 0 1362.79 495.91"><defs><style>.cls-1{fill:#010101;}.cls-2{fill:#e7ded3;}.cls-3{fill:#fff;}.cls-4{fill:#f36b37;}.cls-5{fill:#ffcd32;}.cls-6{fill:#0a9c49;}.cls-7{fill:#2589c2;}</style></defs><rect class="cls-2" width="1362.79" height="495.91"/><path class="cls-7" d="M705.31,170.35s31.9-36.11,71.25-36.11,71.25,36.11,71.25,36.11c0,0-31.9,36.11-71.25,36.11s-71.25-36.11-71.25-36.11Z"/><circle class="cls-3" cx="776.56" cy="170.35" r="25.95" transform="translate(56.95 508.33) rotate(-37.53)"/><path class="cls-7" d="M913.77,261.59c-5.12-1.07-9.27-3.26-12.69-6.69-3.41-3.42-6.03-8-8-14.01l-.09-.29-.09,.29c-1.97,6.01-4.58,10.59-8,14.01-3.42,3.43-7.57,5.62-12.69,6.69l-.47,.1,.47,.1c5.12,1.07,9.27,3.26,12.69,6.69,3.41,3.42,6.03,8,8,14.01l.09,.29,.09-.29c1.97-6.01,4.58-10.59,8-14.01,3.42-3.43,7.57-5.62,12.69-6.69l.47-.1-.47-.1Z"/><path class="cls-4" d="M442.74,261.59c-5.12-1.07-9.27-3.26-12.69-6.69-3.41-3.42-6.03-8-8-14.01l-.09-.29-.09,.29c-1.97,6.01-4.58,10.59-8,14.01-3.42,3.43-7.57,5.62-12.69,6.69l-.47,.1,.47,.1c5.12,1.07,9.27,3.26,12.69,6.69,3.41,3.42,6.03,8,8,14.01l.09,.29,.09-.29c1.97-6.01,4.58-10.59,8-14.01,3.42-3.43,7.57-5.62,12.69-6.69l.47-.1-.47-.1Z"/><path class="cls-1" d="M154.45,131.05h55.13v9.27h-43.55v26.76h39.73v6.25h-39.73v33.94h-11.58v-76.21Z"/><path class="cls-1" d="M323.2,142.17v20.62c6.83-11.81,18.18-19.23,32.89-19.34,3.59,0,7.53,.93,10.89,2.43v7.88c-2.66-1.27-6.49-2.08-10.42-2.08-1.51,0-3.01,.12-4.4,.35-19.11,.93-28.96,19.11-28.96,24.67v30.58h-11.58v-65.09h11.58Z"/><path class="cls-1" d="M418.17,145.87h20.15l.12-25.83,11.58-3.94-.11,29.77h29.42l-2.66,7.64h-26.99v28.49c0,10.89,3.36,17.61,15.06,17.61h20.73v7.64h-24.21c-15.75,0-23.17-10.54-23.17-25.71v-28.03h-20.15l.23-7.64Z"/><path class="cls-1" d="M498.78,207.26V118.65h11.58v45.63c7.88-10.89,19.69-18.99,33.94-18.99,17.26,0,33.59,11,33.59,28.03v33.94h-11.35v-33.94c0-9.5-8.57-21.78-24.21-21.78s-27.8,11.24-31.97,23.51v32.2h-11.58Z"/><path class="cls-1" d="M632.9,143.67c21.43,0,40.08,10.54,39.96,32.89,0,1.04,0,2.43-.23,3.59-5.44,0-62.31,.23-68.57,.23,.81,10.89,10.19,21.77,28.38,21.77,13.32,0,22.59-5.56,27.57-13.2l9.27,1.27c-5.33,10.54-18.42,18.19-36.72,18.19-25.6,0-40.89-15.17-40.89-32.2s15.87-32.55,41.23-32.55Zm-29.07,31.74l56.99-.23c-.23-16.1-12.62-24.9-28.38-24.9-18.88,0-28.84,12.39-28.61,25.13Z"/><path class="cls-1" d="M245.41,301.3l-11,1.04c-2.43-16.33-17.37-23.51-34.28-23.63-20.04-.11-35.1,12.97-35.1,32.55s14.13,32.43,35.21,32.43c17.84,0,30.81-7.53,34.05-22.93l10.66,1.39c-3.82,19-21.78,29.3-44.59,29.3-25.71,0-46.56-16.8-46.56-40.31s20.5-40.31,46.33-40.31c23.16,0,42.39,10.89,45.29,30.46Z"/><path class="cls-1" d="M362.02,285.2v20.62c6.83-11.81,18.18-19.23,32.89-19.34,3.59,0,7.53,.93,10.89,2.43v7.88c-2.66-1.27-6.49-2.08-10.42-2.08-1.51,0-3.01,.12-4.4,.35-19.11,.93-28.96,19.11-28.96,24.67v30.58h-11.58v-65.09h11.58Z"/><rect class="cls-1" x="416.11" y="292.38" width="11.7" height="57.91"/><path class="cls-1" d="M522.78,319.36c0,20.39-19.81,32.78-40.54,32.78s-40.89-12.74-40.89-32.78,20.27-33.01,41.23-33.01,40.19,12.51,40.19,33.01Zm-11.93,0c0-14.48-11.93-26.06-28.72-26.06s-28.73,12.28-28.73,26.06c0,14.48,12.39,26.18,28.73,26.18s28.72-11.7,28.72-26.18Z"/><path class="cls-1" d="M535.63,287.16h11.23v35.1c0,12.74,9.15,22.82,22.47,22.82,23.98,0,33.71-20.15,33.71-25.6v-32.32h11.58v63.13h-11.58v-18.99c-5.67,11.12-18.3,20.04-36.02,20.04-15.29,0-31.39-10.54-31.39-29.07v-35.1Z"/><path class="cls-1" d="M627.59,305.7c0-14.59,19.81-19.34,39.96-19.34,18.65,0,36.25,3.01,36.25,20.38h-11.35c0-11.7-11.35-12.86-24.9-12.86-17.03,0-27.8,3.24-27.8,12.39,0,18.3,65.56-.93,65.56,25.83-.12,14.25-21.08,19.34-38.57,19.34-26.29,0-38.57-7.41-38.69-19.92h11.93c.23,11.81,14.83,12.51,26.41,12.51,17.03,0,27.91-4.29,27.91-11.93,0-18.76-66.71,1.27-66.71-26.41Z"/><path class="cls-1" d="M778.27,274.54l38.22,62.78,38.22-62.78h11.58v75.75h-11.58v-59.07l-36.14,59.07h-4.17l-36.14-59.07v59.07h-11.7v-75.75h11.7Z"/><rect class="cls-1" x="887.14" y="292.38" width="11.7" height="57.91"/><path class="cls-1" d="M918.29,350.29v-63.13h11.58v20.15c7.88-10.89,19.69-18.99,33.94-18.99,17.26,0,33.59,10.19,33.59,28.03v33.94h-11.35v-33.94c0-9.5-8.57-21.31-24.21-21.31s-27.8,11.81-31.97,24.09v31.16h-11.58Z"/><path class="cls-1" d="M1048.13,288.32c15.52,0,33.24,10.42,39.49,20.15v-46.79h11.58v88.61h-11.58v-17.95c-5.91,10.08-20.27,19.11-37.06,18.99-24.67-.12-40.31-15.64-40.31-32.55s14.83-30.46,37.87-30.46Zm5.91,56.29c18.76,0,33.59-14.94,33.59-24.09,0-10.42-17.26-25.6-36.6-25.6s-29.19,10.66-29.19,23.86c0,14.59,12.62,25.83,32.2,25.83Z"/><path class="cls-1" d="M1112.75,305.7c0-14.59,19.81-19.34,39.96-19.34,18.65,0,36.25,3.01,36.25,20.38h-11.35c0-11.7-11.35-12.86-24.9-12.86-17.03,0-27.8,3.24-27.8,12.39,0,18.3,65.56-.93,65.56,25.83-.11,14.25-21.08,19.34-38.57,19.34-26.29,0-38.57-7.41-38.69-19.92h11.93c.23,11.81,14.83,12.51,26.41,12.51,17.03,0,27.91-4.29,27.91-11.93,0-18.76-66.71,1.27-66.71-26.41Z"/><g><path class="cls-4" d="M308.29,175.28l.77-.25-.77-.26c-8.73-2.92-15-7.02-19.16-12.53-.87-6.86,.77-14.17,4.98-22.36l.37-.72-.72,.36c-8.22,4.09-15.54,5.62-22.37,4.67-5.41-4.26-9.38-10.59-12.14-19.35l-.24-.77-.26,.77c-2.96,8.71-7.09,14.96-12.62,19.09-6.86,.82-14.16-.85-22.32-5.11l-.72-.37,.36,.73c4.05,8.26,5.54,15.61,4.54,22.44-4.27,5.42-10.62,9.38-19.41,12.12l-.77,.24,.77,.26c8.72,2.99,14.96,7.15,19.07,12.7,.82,6.87-.86,14.18-5.14,22.34l-.38,.72,.73-.35c8.28-4.05,15.64-5.52,22.49-4.51,5.44,4.27,9.42,10.62,12.18,19.42l.24,.77,.26-.76c2.99-8.73,7.14-14.98,12.7-19.1,6.87-.85,14.2,.81,22.38,5.07l.72,.37-.36-.73c-4.09-8.3-5.58-15.68-4.56-22.54,4.23-5.5,10.57-9.54,19.38-12.37Z"/><circle class="cls-5" cx="258.37" cy="174.71" r="19.41" transform="translate(-47.86 233.86) rotate(-45)"/></g><path class="cls-6" d="M259.19,287.16v26.89c0,21.31,17.28,38.59,38.59,38.59s38.59-17.28,38.59-38.59v-26.89h-77.17Z"/></svg>