<?xml version="1.0" encoding="UTF-8"?><svg id="Layer_1" xmlns="http://www.w3.org/2000/svg" viewBox="0 0 705.31 640.77"><defs><style>.cls-1{fill:#010101;}.cls-2{fill:#f36b37;}</style></defs><path class="cls-1" d="M640.16,364.69c-47.96-15.89-82.38-38.3-105.19-68.49-5.16-37.53,3.4-77.71,26.17-122.82l2.9-5.74-5.73,2.91c-44.92,22.85-85,31.56-122.46,26.57-30.07-22.82-52.4-57.18-68.26-105.01l-2.02-6.1-1.97,6.12c-15.52,47.9-37.58,82.39-67.45,105.42-37.36,5.16-77.48-3.31-122.52-25.87l-5.75-2.88,2.93,5.72c22.94,44.8,31.75,84.79,26.94,122.22-22.8,30.04-57.1,52.36-104.84,68.23l-5.19,1.73s125.03,141.51,279.26,141.51,279.26-141.51,279.26-141.51l-6.08-2.02Z"/><circle class="cls-2" cx="366.98" cy="345.27" r="102.25" transform="translate(-136.66 360.62) rotate(-45)"/></svg>