<?xml version="1.0" encoding="UTF-8"?><svg id="Layer_1" xmlns="http://www.w3.org/2000/svg" viewBox="0 0 1362.79 495.91"><defs><style>.cls-1{fill:#010101;}</style></defs><path class="cls-1" d="M1227.25,176.67c0-47.31-38.35-85.66-85.66-85.66s-85.66,38.35-85.66,85.66h0v114.16h57.13v-114.16c0-15.73,12.8-28.53,28.53-28.53s28.53,12.8,28.53,28.53l.02,114.16h57.13l-.02-114.16Z"/><path class="cls-1" d="M1038.48,91.01c-31.55,0-57.13,25.58-57.13,57.13v57.03h0c0,15.73-12.8,28.53-28.53,28.53s-28.53-12.8-28.53-28.53h0v-57.03c0-31.55-25.58-57.13-57.13-57.13h0v114.24h0c.04,47.27,38.37,85.64,85.66,85.64h0c15.73,0,28.48,12.75,28.48,28.48s-12.75,28.48-28.48,28.48-28.41-12.69-28.48-28.36h-57.09c.07,47.2,38.35,85.44,85.56,85.44s85.57-38.31,85.57-85.57c0-21.91-8.25-41.89-21.79-57.03,13.59-15.15,21.86-35.15,21.88-57.09h0V91.01h0Z"/><path class="cls-1" d="M664.08,91.01c-31.55,0-57.13,25.58-57.13,57.13v57.03c0,15.73-12.8,28.53-28.53,28.53s-28.53-12.8-28.53-28.53h0v-57.03c0-31.55-25.58-57.13-57.13-57.13v114.21h0c.03,47.28,38.37,85.66,85.66,85.66h0c15.73,0,28.48,12.75,28.48,28.48s-12.75,28.48-28.48,28.48-28.41-12.69-28.48-28.36h-57.09c.07,47.2,38.35,85.44,85.56,85.44s85.57-38.31,85.57-85.57c0-21.91-8.25-41.89-21.79-57.03,13.59-15.15,21.87-35.16,21.88-57.12h0V91.01h0Z"/><path class="cls-1" d="M678.45,139.54c-.73,28.16,21.88,51.23,49.88,51.23-25.57,0-46.64,19.25-49.54,44.04-.19,1.59-.23,3.19-.23,4.8-.03,6.26-.12,51.16-.12,51.16h57.13v-36.53c-.01-11.4,9.24-20.65,20.64-20.65l65.01,.04v-57.07h-70.81c-7.67,0-14.39-5.78-14.85-13.43-.5-8.31,6.09-15.21,14.29-15.21h99.67v-56.94h-120.06c-27.23,0-50.28,21.35-50.99,48.56Z"/><path class="cls-1" d="M428.12,190.78c27.56,0,49.89-22.34,49.89-49.9s-22.34-49.89-49.89-49.89l-206.93,.02c-47.26,0-85.57,38.31-85.57,85.57,0,.04-.03,27.95-.03,27.95,0,47.3,38.34,86.33,85.64,86.34h0c15.76,0,28.53,12.75,28.53,28.48s-12.77,28.48-28.53,28.48-28.46-12.69-28.53-28.36h-57.19c.07,47.2,38.41,85.44,85.71,85.44s85.72-38.31,85.72-85.57c0-22.09-8.39-42.22-22.15-57.4,13.74-15.19,22.11-35.33,22.11-57.42h0v-27.96h-57.13v27.96h0c0,15.73-12.8,28.53-28.53,28.53s-28.53-12.8-28.53-28.53v-27.95c-.01-15.72,12.72-28.46,28.43-28.48l185.46-.17c8.22,0,14.83,6.93,14.29,15.27-.49,7.61-7.15,13.37-14.78,13.37h-70.88v57.07l65.01-.04c11.4,0,20.65,9.25,20.65,20.65v36.51h57.12l-.12-50.42c0-2.65-.14-5.31-.57-7.92-3.93-23.63-24.46-41.64-49.2-41.64Z"/></svg>