<?xml version="1.0" encoding="UTF-8"?><svg id="Layer_1" xmlns="http://www.w3.org/2000/svg" viewBox="0 0 464.27 475.13"><defs><style>.cls-1{fill:#f36b37;}.cls-2{fill:#ffcd32;}</style></defs><path class="cls-1" d="M411.5,231.8l-5.15-1.72c-29.32-9.77-55.44-22.93-78.34-39.38,4.56-27.82,13.73-55.59,27.55-83.24l2.43-4.85-4.85,2.43c-27.65,13.82-55.42,22.99-83.24,27.55-16.45-22.89-29.6-49.02-39.38-78.34l-1.72-5.15-1.72,5.15c-9.77,29.32-22.93,55.44-39.38,78.34-27.82-4.56-55.59-13.73-83.24-27.55l-4.85-2.43,2.43,4.85c13.82,27.64,22.99,55.42,27.55,83.24-22.9,16.45-49.02,29.61-78.34,39.38l-5.15,1.72,5.15,1.72c29.32,9.77,55.44,22.93,78.34,39.38-4.56,27.82-13.73,55.59-27.55,83.24l-2.43,4.85,4.85-2.43c27.65-13.82,55.42-22.99,83.24-27.55,16.45,22.89,29.6,49.02,39.38,78.34l1.72,5.15,1.72-5.15c9.77-29.32,22.93-55.44,39.38-78.34,27.82,4.56,55.59,13.73,83.24,27.55l4.85,2.43-2.43-4.85c-13.82-27.64-22.99-55.42-27.55-83.24,22.89-16.45,49.02-29.61,78.34-39.38l5.15-1.72Z"/><circle class="cls-2" cx="228.8" cy="230.87" r="70.4" transform="translate(-96.23 229.4) rotate(-45)"/></svg>