<?xml version="1.0" encoding="UTF-8"?><svg id="Layer_1" xmlns="http://www.w3.org/2000/svg" viewBox="0 0 1362.79 409.82"><defs><style>.cls-1{fill:#010101;}.cls-2{fill:#ea7542;}.cls-3{fill:#ffcd32;}.cls-4{fill:#2488c1;}.cls-5{fill:#449947;}</style></defs><path class="cls-1" d="M804.84,106.5h8.8l9.76,16.64,8.9-16.64h8.66l-13.32,23.09v9.57h-8.03v-9.52l-14.77-23.14Z"/><path class="cls-1" d="M875.06,125.69c0,9.28-8.9,14.24-17.99,14.24s-18.23-5.05-18.23-14.24,9.28-14.33,18.52-14.33,17.7,4.95,17.7,14.33Zm-9.24,0c0-5.19-3.08-9.24-8.85-9.24s-8.9,4.57-8.9,9.24c0,5.29,3.66,9.52,8.9,9.52s8.85-4.23,8.85-9.52Z"/><path class="cls-1" d="M878.77,112.13h8.71l-.05,15.1c0,4.62,3.37,7.84,8.18,7.84,7.7,0,11.3-6.54,11.3-9.14l.05-13.8h8.85v27.08h-8.85v-5.82c-2.02,3.03-6.59,6.16-13.28,6.16s-14.91-3.75-14.91-12.31v-15.1Z"/><path class="cls-1" d="M922.45,139.16v-27.61h8.85v5.77c2.84-3.61,6.93-5.92,11.93-5.87,1.35,0,2.84,.24,4.23,.63l-.05,5.68c-.82-.29-2.12-.48-3.51-.48-1.25,0-2.6,.14-3.9,.53-5.1,.82-8.71,5.77-8.71,9.09v12.27h-8.85Z"/><path class="cls-1" d="M966.61,139.16v-37.47h8.85v21.93l13.61-11.59h11.16l-12.55,10.92,11.88,16.26h-8.51l-8.66-12.17-6.93,5.96v6.16h-8.85Z"/><path class="cls-1" d="M1020.15,112.08c9.14,0,17.65,4.47,17.7,14,0,.77-.1,1.59-.29,2.31-2.69,0-23.28,.1-26.36,.1,.14,3.7,3.61,6.78,8.61,6.78,3.46,0,6.83-1.25,9.04-3.66l6.93,1.15c-2.4,4.28-8.56,7.02-15.87,7.02-9.96,0-18.23-5.39-18.23-13.8s8.51-13.9,18.47-13.9Zm-9.09,12.94l17.41-.05c0-4.76-3.56-8.08-8.66-8.08-5.63,0-8.8,4.14-8.75,8.13Z"/><path class="cls-1" d="M1047.95,111.26l8.95,23.81,9.67-23.81h8.9l-16.74,40.36h-8.56l5.05-12.46c-3.22-.1-5.96-1.78-7.07-4.62l-9.52-23.28h9.33Z"/><path class="cls-1" d="M1091.68,117.85l.14-5.68h6.35l.05-7.7,8.95-3.32-.1,11.01h10.58l-1.97,5.68h-8.8v10.34c0,2.98,1.11,5.34,4.76,5.34h8.08v5.63h-10.92c-6.73,0-10.77-5.1-10.77-11.35v-9.96h-6.35Z"/><path class="cls-1" d="M1157.77,125.69c0,9.28-8.9,14.24-17.99,14.24s-18.23-5.05-18.23-14.24,9.28-14.33,18.52-14.33,17.7,4.95,17.7,14.33Zm-9.24,0c0-5.19-3.08-9.24-8.85-9.24s-8.9,4.57-8.9,9.24c0,5.29,3.66,9.52,8.9,9.52s8.85-4.23,8.85-9.52Z"/><path class="cls-1" d="M1174.95,117.85l.14-5.68h6.35l.05-7.7,8.95-3.32-.1,11.01h10.58l-1.97,5.68h-8.8v10.34c0,2.98,1.11,5.34,4.76,5.34h8.08v5.63h-10.92c-6.73,0-10.77-5.1-10.77-11.35v-9.96h-6.35Z"/><path class="cls-1" d="M1207.37,101.69h8.85v16.35c3.17-3.03,7.55-5.15,12.36-5.15,8.22,0,15.82,4.38,15.82,12.17v14.09h-8.71v-14.09c0-1.73-1.25-7.7-8.8-7.7-5.96,0-9.96,3.94-10.68,7.98v13.8h-8.85v-37.47Z"/><path class="cls-1" d="M1267.35,112.08c9.14,0,17.65,4.47,17.7,14,0,.77-.1,1.59-.29,2.31-2.69,0-23.28,.1-26.36,.1,.14,3.7,3.61,6.78,8.61,6.78,3.46,0,6.83-1.25,9.04-3.66l6.93,1.15c-2.4,4.28-8.56,7.02-15.87,7.02-9.96,0-18.23-5.39-18.23-13.8s8.51-13.9,18.47-13.9Zm-9.09,12.94l17.41-.05c0-4.76-3.56-8.08-8.66-8.08-5.63,0-8.8,4.14-8.75,8.13Z"/><path class="cls-3" d="M838.27,167.98v-5.63h-8.31c-21.5,0-25.13,9.91-25.13,32.12,0,27.55,7.75,32.2,25.13,32.2h8.31v-5.63h-7.61c-15.21,0-17.89-8.57-17.89-26.57,0-22.53,5.77-26.49,17.89-26.49h7.61Z"/><path class="cls-1" d="M840.48,178.79v22.03c0,4.28,4.67,6.25,8.42,6.25s7.74-2.65,7.74-6.25v-22.03h8.85v20.78c0,5.29-5,12.6-16.93,12.6s-16.88-7.36-16.88-12.6v-20.78h8.8Z"/><path class="cls-1" d="M880.65,178.7l13.37,20.15v-20.15h8.75v32.85h-7.65l-14.43-20.59v20.59h-8.75l-.1-32.85h8.8Z"/><path class="cls-3" d="M931.03,194.47c0-22.21-3.63-32.12-25.13-32.12h-8.31v5.63h7.61c15.21,0,17.89,8.54,17.89,26.49,0,22.59-5.77,26.57-17.89,26.57h-7.61v5.63h8.31c21.5,0,25.13-9.93,25.13-32.2Z"/><path class="cls-1" d="M940.61,211.55v-37.47h8.85v21.93l13.61-11.59h11.16l-12.55,10.92,11.88,16.26h-8.51l-8.66-12.17-6.93,5.96v6.16h-8.85Z"/><path class="cls-1" d="M978.42,184.47h8.85v6.01c3.17-3.03,7.55-5.15,12.36-5.15,8.22,0,15.82,3.66,15.82,12.17v14.09h-8.71v-14.09c0-1.73-1.25-7.36-8.8-7.36-5.96,0-9.96,4.43-10.68,8.47v12.99h-8.85v-27.13Z"/><path class="cls-1" d="M1055.38,198.08c0,9.28-8.9,14.24-17.99,14.24s-18.23-5.05-18.23-14.24,9.28-14.33,18.52-14.33,17.7,4.95,17.7,14.33Zm-9.24,0c0-5.19-3.08-9.24-8.85-9.24s-8.9,4.57-8.9,9.24c0,5.29,3.66,9.52,8.9,9.52s8.85-4.23,8.85-9.52Z"/><path class="cls-1" d="M1056.83,183.7c8.27,0,8.56,.87,8.32-.05l7.07,21.98,7.41-21.98h9.43l7.31,21.98,7.07-21.98h9.19l-10,27.9h-11.59l-6.97-19.82-6.64,19.82h-12.02l-9.62-27.85h1.06Z"/><path class="cls-1" d="M1115.71,184.47h8.85v6.01c3.17-3.03,7.55-5.15,12.36-5.15,8.22,0,15.82,3.66,15.82,12.17v14.09h-8.71v-14.09c0-1.73-1.25-7.36-8.8-7.36-5.96,0-9.96,4.43-10.68,8.47v12.99h-8.85v-27.13Z"/><g><path class="cls-3" d="M372.14,118.48c-10.72-2.24-17.64-9.17-21.77-21.79l-.23-.7-.23,.7c-4.14,12.63-11.05,19.55-21.77,21.79l-1.12,.24,1.12,.24c10.72,2.24,17.64,9.17,21.77,21.79l.23,.7,.23-.7c4.13-12.62,11.05-19.55,21.77-21.79l1.12-.24-1.12-.24Z"/><path class="cls-5" d="M602.43,118.48c-10.72-2.24-17.64-9.17-21.77-21.79l-.23-.7-.23,.7c-4.14,12.63-11.05,19.55-21.77,21.79l-1.12,.24,1.12,.24c10.72,2.24,17.64,9.17,21.77,21.79l.23,.7,.23-.7c4.13-12.62,11.05-19.55,21.77-21.79l1.12-.24-1.12-.24Z"/><path class="cls-1" d="M633.1,101.17c-19.41,0-35.14,15.73-35.14,35.14v35.08h0c0,9.67-7.87,17.54-17.54,17.54s-17.54-7.87-17.54-17.54h0v-35.08c0-19.41-15.73-35.14-35.14-35.14h0v70.26h0c.02,29.08,23.6,52.67,52.68,52.67h0c9.68,0,17.52,7.84,17.52,17.52s-7.84,17.52-17.52,17.52-17.47-7.8-17.52-17.44h-35.11c.04,29.03,23.59,52.55,52.63,52.55s52.63-23.56,52.63-52.63c0-13.48-5.07-25.77-13.4-35.08,8.36-9.32,13.45-21.62,13.46-35.12h0V101.17h0Z"/><path class="cls-1" d="M402.82,101.17c-19.41,0-35.14,15.73-35.14,35.14v35.08c0,9.67-7.87,17.54-17.54,17.54s-17.54-7.87-17.54-17.54h0v-35.08c0-19.41-15.73-35.14-35.14-35.14v70.25h0c.02,29.08,23.6,52.69,52.68,52.69h0c9.68,0,17.52,7.84,17.52,17.52s-7.84,17.52-17.52,17.52-17.47-7.8-17.52-17.44h-35.11c.04,29.03,23.59,52.55,52.63,52.55s52.63-23.56,52.63-52.63c0-13.48-5.07-25.77-13.4-35.08,8.36-9.32,13.45-21.63,13.46-35.13h0V101.17h0Z"/><path class="cls-1" d="M411.67,131.02c-.45,17.32,13.46,31.51,30.68,31.51-15.73,0-28.69,11.84-30.47,27.09-.11,.98-.14,1.96-.14,2.95-.02,3.85-.07,31.47-.07,31.47h35.14v-24.64c0-7.01,5.68-12.7,12.69-12.7l39.98,.02v-32.93h-43.55c-4.71,0-8.85-3.56-9.13-8.26-.31-5.11,3.75-9.35,8.79-9.35h61.3v-35.02h-73.85c-16.75,0-30.92,13.13-31.36,29.87Z"/><path class="cls-1" d="M749.2,153.85c0-29.1-23.59-52.68-52.68-52.68s-52.68,23.59-52.68,52.68h0v70.22h35.14v-54.35c-11.76-5.58-19.76-14.63-19.76-14.63,0,0,16.71-18.91,37.31-18.91s37.31,18.91,37.31,18.91c0,0-8.01,9.06-19.77,14.64v54.34h35.15l-.02-70.22Z"/><path class="cls-1" d="M287.96,188.15c-2.42-14.53-15.04-25.61-30.26-25.61,16.95,0,30.69-13.74,30.69-30.69s-13.74-30.69-30.69-30.69h-127.27c-29.07,.01-52.63,23.58-52.63,52.64,0,.03-.02,17.19-.02,17.19,0,20.65,11.88,38.73,29.19,47.49,.29,.15,.45,.26,.76,.39,5.69,2.98,9.56,2.62,14.41,2.03,3.91-2.91,6.83-7.35,8.9-13.42,1.92,6.11,4.73,10.6,8.56,13.6,4.82,.68,10.01-.41,15.75-3.27-2.94,5.71-4.11,10.9-3.49,15.74,2.93,3.9,7.38,6.8,13.47,8.84-6.14,1.97-10.65,4.83-13.63,8.72-.73,4.85,.34,10.08,3.19,15.87-5.71-2.97-10.9-4.16-15.76-3.55-3.94,2.9-6.87,7.34-8.96,13.43-1.92-6.14-4.73-10.65-8.59-13.66-4.84-.73-10.05,.32-15.83,3.15,2.99-5.7,4.19-10.87,3.6-15.73-2.89-3.92-7.31-6.85-13.37-8.94h-18.25c.04,29.03,23.63,52.55,52.72,52.55s52.72-23.56,52.72-52.63c0-13.58-5.16-25.96-13.62-35.3,8.45-9.34,13.6-21.73,13.6-35.32h0v-17.19h-35.14v17.19h0c0,9.67-7.87,17.54-17.54,17.54s-17.54-7.87-17.54-17.54v-17.19c0-9.67,7.82-17.51,17.49-17.52l114.07-.1c5.06,0,9.12,4.26,8.79,9.39-.3,4.68-4.4,8.22-9.09,8.22h-43.6v32.93l39.98-.02c7.01,0,12.7,5.69,12.7,12.7v24.63h35.13l-.07-31.01c0-1.63-.08-3.26-.35-4.87Z"/><circle class="cls-2" cx="130.58" cy="241.54" r="13.53" transform="translate(-132.55 163.08) rotate(-45)"/><circle class="cls-4" cx="696.53" cy="153.81" r="13.53"/></g></svg>