<?xml version="1.0" encoding="UTF-8"?><svg id="Layer_1" xmlns="http://www.w3.org/2000/svg" viewBox="0 0 1362.79 728.03"><defs><style>.cls-1{fill:#010101;}.cls-2{fill:#ea7542;}.cls-3{fill:#ffcd32;}.cls-4{fill:#2488c1;}.cls-5{fill:#449947;}</style></defs><path class="cls-1" d="M165.23,515.01h10.9l12.09,20.6,11.01-20.6h10.72l-16.49,28.58v11.85h-9.94v-11.79l-18.28-28.64Z"/><path class="cls-1" d="M252.17,538.77c0,11.49-11.01,17.62-22.27,17.62s-22.57-6.25-22.57-17.62,11.49-17.74,22.92-17.74,21.91,6.13,21.91,17.74Zm-11.43,0c0-6.43-3.81-11.43-10.96-11.43s-11.01,5.66-11.01,11.43c0,6.55,4.53,11.79,11.01,11.79s10.96-5.24,10.96-11.79Z"/><path class="cls-1" d="M256.76,521.98h10.78l-.06,18.7c0,5.72,4.17,9.71,10.12,9.71,9.53,0,13.99-8.1,13.99-11.31l.06-17.09h10.96v33.52h-10.96v-7.2c-2.5,3.75-8.16,7.62-16.43,7.62s-18.46-4.64-18.46-15.24v-18.7Z"/><path class="cls-1" d="M310.82,555.44v-34.18h10.96v7.14c3.51-4.47,8.57-7.32,14.77-7.26,1.67,0,3.51,.3,5.24,.77l-.06,7.03c-1.01-.36-2.62-.6-4.35-.6-1.55,0-3.22,.18-4.82,.65-6.31,1.01-10.78,7.14-10.78,11.25v15.18h-10.96Z"/><path class="cls-1" d="M365.49,555.44v-46.38h10.96v27.15l16.85-14.35h13.81l-15.54,13.52,14.71,20.12h-10.54l-10.72-15.06-8.57,7.38v7.62h-10.96Z"/><path class="cls-1" d="M431.76,521.92c11.31,0,21.85,5.54,21.91,17.33,0,.95-.12,1.96-.36,2.86-3.33,0-28.82,.12-32.63,.12,.18,4.58,4.47,8.4,10.66,8.4,4.29,0,8.45-1.55,11.19-4.53l8.57,1.43c-2.98,5.3-10.6,8.69-19.65,8.69-12.32,0-22.57-6.67-22.57-17.09s10.54-17.21,22.86-17.21Zm-11.25,16.02l21.55-.06c0-5.89-4.41-10-10.72-10-6.97,0-10.9,5.12-10.84,10.06Z"/><path class="cls-1" d="M466.18,520.91l11.07,29.47,11.97-29.47h11.01l-20.72,49.95h-10.6l6.25-15.42c-3.99-.12-7.38-2.2-8.75-5.72l-11.79-28.82h11.55Z"/><path class="cls-1" d="M520.31,529.07l.18-7.03h7.86l.06-9.53,11.07-4.11-.12,13.63h13.1l-2.44,7.03h-10.9v12.8c0,3.69,1.37,6.61,5.89,6.61h10v6.97h-13.52c-8.34,0-13.34-6.31-13.34-14.05v-12.32h-7.86Z"/><path class="cls-1" d="M602.12,538.77c0,11.49-11.01,17.62-22.27,17.62s-22.57-6.25-22.57-17.62,11.49-17.74,22.92-17.74,21.91,6.13,21.91,17.74Zm-11.43,0c0-6.43-3.81-11.43-10.96-11.43s-11.01,5.66-11.01,11.43c0,6.55,4.53,11.79,11.01,11.79s10.96-5.24,10.96-11.79Z"/><path class="cls-1" d="M623.38,529.07l.18-7.03h7.86l.06-9.53,11.07-4.11-.12,13.63h13.1l-2.44,7.03h-10.9v12.8c0,3.69,1.37,6.61,5.89,6.61h10v6.97h-13.52c-8.34,0-13.34-6.31-13.34-14.05v-12.32h-7.86Z"/><path class="cls-1" d="M663.51,509.06h10.96v20.24c3.93-3.75,9.35-6.37,15.3-6.37,10.18,0,19.59,5.42,19.59,15.06v17.45h-10.78v-17.45c0-2.14-1.55-9.53-10.9-9.53-7.38,0-12.32,4.88-13.22,9.88v17.09h-10.96v-46.38Z"/><path class="cls-1" d="M737.77,521.92c11.31,0,21.85,5.54,21.91,17.33,0,.95-.12,1.96-.36,2.86-3.33,0-28.82,.12-32.63,.12,.18,4.58,4.47,8.4,10.66,8.4,4.29,0,8.45-1.55,11.19-4.53l8.57,1.43c-2.98,5.3-10.6,8.69-19.65,8.69-12.32,0-22.57-6.67-22.57-17.09s10.54-17.21,22.86-17.21Zm-11.25,16.02l21.55-.06c0-5.89-4.41-10-10.72-10-6.97,0-10.9,5.12-10.84,10.06Z"/><path class="cls-3" d="M825.9,501.51v-6.96h-10.28c-26.62,0-31.11,12.27-31.11,39.76,0,34.1,9.6,39.85,31.11,39.85h10.28v-6.96h-9.43c-18.83,0-22.14-10.61-22.14-32.89,0-27.89,7.14-32.8,22.14-32.8h9.43Z"/><path class="cls-1" d="M828.63,514.89v27.27c0,5.3,5.78,7.74,10.42,7.74s9.59-3.27,9.59-7.74v-27.27h10.96v25.72c0,6.55-6.19,15.6-20.96,15.6s-20.9-9.11-20.9-15.6v-25.72h10.9Z"/><path class="cls-1" d="M878.35,514.78l16.55,24.95v-24.95h10.84v40.67h-9.47l-17.86-25.48v25.48h-10.84l-.12-40.67h10.9Z"/><path class="cls-3" d="M940.72,534.3c0-27.49-4.49-39.76-31.11-39.76h-10.28v6.96h9.43c18.83,0,22.14,10.58,22.14,32.8,0,27.97-7.14,32.89-22.14,32.89h-9.43v6.96h10.28c26.61,0,31.11-12.3,31.11-39.85Z"/><path class="cls-1" d="M952.58,555.44v-46.38h10.96v27.15l16.85-14.35h13.81l-15.54,13.52,14.71,20.12h-10.54l-10.72-15.06-8.57,7.38v7.62h-10.96Z"/><path class="cls-1" d="M999.38,521.92h10.96v7.44c3.93-3.75,9.35-6.37,15.3-6.37,10.18,0,19.59,4.53,19.59,15.06v17.45h-10.78v-17.45c0-2.14-1.55-9.11-10.9-9.11-7.38,0-12.32,5.48-13.22,10.48v16.08h-10.96v-33.58Z"/><path class="cls-1" d="M1094.65,538.77c0,11.49-11.01,17.62-22.27,17.62s-22.57-6.25-22.57-17.62,11.49-17.74,22.92-17.74,21.91,6.13,21.91,17.74Zm-11.43,0c0-6.43-3.81-11.43-10.96-11.43s-11.01,5.66-11.01,11.43c0,6.55,4.53,11.79,11.01,11.79s10.96-5.24,10.96-11.79Z"/><path class="cls-1" d="M1096.44,520.97c10.24,0,10.6,1.07,10.3-.06l8.75,27.21,9.17-27.21h11.67l9.05,27.21,8.75-27.21h11.37l-12.38,34.53h-14.35l-8.63-24.53-8.22,24.53h-14.89l-11.91-34.47h1.31Z"/><path class="cls-1" d="M1169.33,521.92h10.96v7.44c3.93-3.75,9.35-6.37,15.3-6.37,10.18,0,19.59,4.53,19.59,15.06v17.45h-10.78v-17.45c0-2.14-1.55-9.11-10.9-9.11-7.38,0-12.32,5.48-13.22,10.48v16.08h-10.96v-33.58Z"/><g><path class="cls-3" d="M625.48,189.03c-16.76-3.51-27.57-14.33-34.04-34.07l-.36-1.09-.36,1.09c-6.46,19.74-17.28,30.56-34.04,34.07l-1.76,.37,1.76,.37c16.76,3.51,27.57,14.33,34.04,34.07l.36,1.09,.36-1.09c6.46-19.74,17.28-30.56,34.04-34.07l1.76-.37-1.76-.37Z"/><path class="cls-5" d="M985.5,189.03c-16.76-3.51-27.57-14.33-34.04-34.07l-.36-1.09-.36,1.09c-6.46,19.74-17.28,30.56-34.04,34.07l-1.76,.37,1.76,.37c16.76,3.51,27.57,14.33,34.04,34.07l.36,1.09,.36-1.09c6.46-19.74,17.28-30.56,34.04-34.07l1.76-.37-1.76-.37Z"/><path class="cls-1" d="M1033.45,161.97c-30.34,0-54.93,24.59-54.93,54.93v54.84h0c0,15.12-12.3,27.43-27.43,27.43s-27.43-12.3-27.43-27.43h0v-54.84c0-30.34-24.59-54.93-54.93-54.93h0v109.84h0c.04,45.45,36.9,82.34,82.36,82.34h0c15.13,0,27.39,12.26,27.39,27.39s-12.26,27.39-27.39,27.39-27.32-12.2-27.38-27.27h-54.89c.06,45.38,36.87,82.15,82.27,82.15s82.27-36.84,82.27-82.27c0-21.07-7.93-40.28-20.95-54.84,13.06-14.56,21.02-33.8,21.04-54.9h0v-109.84h0Z"/><path class="cls-1" d="M673.45,161.97c-30.34,0-54.93,24.59-54.93,54.93v54.84c0,15.12-12.3,27.43-27.43,27.43s-27.43-12.3-27.43-27.43h0v-54.84c0-30.34-24.59-54.93-54.93-54.93v109.82h0c.03,45.46,36.89,82.37,82.36,82.37h0c15.13,0,27.39,12.26,27.39,27.39s-12.26,27.39-27.39,27.39-27.32-12.2-27.38-27.27h-54.89c.06,45.38,36.87,82.15,82.27,82.15s82.27-36.84,82.27-82.27c0-21.07-7.93-40.28-20.95-54.84,13.07-14.57,21.03-33.81,21.04-54.92h0v-109.82h0Z"/><path class="cls-1" d="M687.28,208.63c-.71,27.08,21.04,49.25,47.96,49.25-24.59,0-44.85,18.5-47.63,42.35-.18,1.53-.22,3.07-.23,4.61-.03,6.02-.12,49.19-.12,49.19h54.93v-38.52c-.01-10.97,8.88-19.86,19.85-19.86l62.51,.04v-51.48h-68.09c-7.37,0-13.84-5.56-14.28-12.92-.48-7.99,5.86-14.62,13.74-14.62h95.83v-54.75h-115.44c-26.18,0-48.34,20.52-49.03,46.69Z"/><path class="cls-1" d="M1214.95,244.33c0-45.49-36.87-82.36-82.36-82.36s-82.36,36.87-82.36,82.36h0v109.77h54.93v-84.97c-18.38-8.72-30.89-22.87-30.89-22.87,0,0,26.12-29.56,58.33-29.56s58.33,29.56,58.33,29.56c0,0-12.52,14.17-30.91,22.88l.02,84.96h54.93l-.02-109.77Z"/><path class="cls-1" d="M493.88,297.94c-3.78-22.72-23.52-40.04-47.31-40.04,26.5,0,47.97-21.48,47.97-47.98s-21.48-47.97-47.97-47.97l-198.97,.02c-45.44,0-82.27,36.84-82.27,82.27,0,.04-.03,26.87-.03,26.87,0,32.28,18.58,60.55,45.63,74.25,.46,.24,.71,.4,1.18,.6,8.9,4.65,14.95,4.1,22.52,3.17,6.12-4.55,10.68-11.49,13.91-20.99,3.01,9.55,7.4,16.57,13.39,21.27,7.54,1.06,15.65-.65,24.62-5.11-4.6,8.93-6.43,17.03-5.45,24.61,4.58,6.1,11.54,10.63,21.06,13.81-9.6,3.08-16.64,7.55-21.3,13.63-1.15,7.58,.52,15.75,4.98,24.81-8.93-4.65-17.04-6.51-24.63-5.55-6.15,4.54-10.74,11.48-14,21-3-9.59-7.4-16.65-13.42-21.35-7.56-1.14-15.71,.51-24.75,4.92,4.67-8.9,6.55-17,5.62-24.59-4.52-6.13-11.43-10.71-20.9-13.97h-28.53c.06,45.38,36.94,82.15,82.41,82.15s82.42-36.84,82.42-82.27c0-21.24-8.06-40.59-21.3-55.19,13.21-14.61,21.25-33.97,21.25-55.21h0v-26.88h-54.93v26.88h0c0,15.12-12.3,27.43-27.43,27.43s-27.43-12.3-27.43-27.43v-26.87c-.01-15.11,12.23-27.37,27.34-27.39l178.33-.16c7.91,0,14.26,6.66,13.74,14.68-.47,7.32-6.88,12.85-14.21,12.85h-68.16v51.48l62.51-.03c10.97,0,19.86,8.89,19.86,19.86v38.5h54.92l-.12-48.48c0-2.55-.13-5.1-.55-7.62Z"/><circle class="cls-2" cx="247.85" cy="381.41" r="21.15" transform="translate(-197.1 286.97) rotate(-45)"/><circle class="cls-4" cx="1132.6" cy="244.26" r="21.15"/></g></svg>